<?xml version="1.0" encoding="UTF-8"?>
<svg version="1.1" xmlns="http://www.w3.org/2000/svg" width="385" height="394">
<path d="M0 0 C127.05 0 254.1 0 385 0 C385 130.02 385 260.04 385 394 C257.95 394 130.9 394 0 394 C0 263.98 0 133.96 0 0 Z " fill="#000000" transform="translate(0,0)"/>
<path d="M0 0 C6.94286505 4.24526941 12.59086629 10.28437724 18.30078125 16 C19.26843605 16.96375787 20.2363103 17.92729543 21.20439148 18.890625 C23.2188453 20.89766876 25.22944865 22.90847509 27.23754883 24.921875 C29.8022824 27.49242661 32.37826399 30.05137227 34.95744038 32.60742188 C36.95389599 34.58910914 38.94334296 36.57771913 40.93086815 38.56835938 C42.33512356 39.97185749 43.74590774 41.36881359 45.15681458 42.765625 C46.01167953 43.62671875 46.86654449 44.4878125 47.74731445 45.375 C48.49817825 46.12523437 49.24904205 46.87546875 50.0226593 47.6484375 C53.08996311 51.29624418 55.43490393 55.20029774 55.375 60.0625 C54.3073325 71.27300879 41.55342977 80.60358672 33.984375 88.18359375 C33.16551819 89.00577896 32.34666138 89.82796417 31.50299072 90.67506409 C29.79007986 92.39299249 28.07585404 94.10961072 26.36035156 95.82495117 C23.7373514 98.45015924 21.12248343 101.08329601 18.5078125 103.71679688 C16.8338225 105.39371762 15.1593601 107.07016695 13.484375 108.74609375 C12.7072113 109.53044296 11.93004761 110.31479218 11.1293335 111.12290955 C10.3979718 111.85119461 9.66661011 112.57947968 8.91308594 113.32983398 C8.27626892 113.96807602 7.6394519 114.60631805 6.9833374 115.26390076 C2.08811812 119.54889356 -1.79310506 120.70596037 -8.19921875 120.55859375 C-12.95716383 119.6096591 -16.02155561 116.71907361 -19 113 C-19.94496268 110.16511195 -20.2261999 108.14441383 -20.3125 105.1875 C-20.34988281 104.35605469 -20.38726562 103.52460938 -20.42578125 102.66796875 C-19.33120896 95.80931854 -13.11329271 90.8484554 -8.390625 86.1953125 C-7.66381531 85.4713327 -6.93700562 84.74735291 -6.18817139 84.00143433 C-3.88012481 81.70452619 -1.56520026 79.41469504 0.75 77.125 C2.32207486 75.5629631 3.89369449 74.0004679 5.46484375 72.4375 C9.30464152 68.61967851 13.15010089 64.80763361 17 61 C15.66427725 58.02563812 14.20591417 55.96676502 11.88305664 53.68774414 C11.25222672 53.06352066 10.62139679 52.43929718 9.97145081 51.79615784 C9.2912236 51.13252731 8.6109964 50.46889679 7.91015625 49.78515625 C7.20982773 49.09240097 6.50949921 48.39964569 5.78794861 47.68589783 C2.79551757 44.72612565 -0.20856875 41.77828466 -3.21166992 38.8293457 C-5.40432741 36.67289505 -7.59094226 34.5104466 -9.77734375 32.34765625 C-10.45554672 31.68604996 -11.13374969 31.02444366 -11.83250427 30.3427887 C-19.56527453 22.6905982 -19.56527453 22.6905982 -20.43359375 17.31640625 C-20.44199545 11.39320556 -20.20914447 7.55042646 -16 3 C-11.65958753 -0.94582952 -5.54208882 -1.27230833 0 0 Z " fill="#F7F7F7" transform="translate(239,134)"/>
<path d="M0 0 C3.61856848 3.02949919 5.33541336 4.98811009 6.07421875 9.734375 C6.54537833 17.31480907 4.39759343 20.527689 -0.3125 26.25 C-2.61493668 28.78253346 -5.02102272 31.1941173 -7.4609375 33.59375 C-8.11832916 34.24831177 -8.77572083 34.90287354 -9.45303345 35.57727051 C-11.52648671 37.63964733 -13.6068284 39.69490845 -15.6875 41.75 C-17.10593289 43.15838687 -18.52390598 44.56723698 -19.94140625 45.9765625 C-23.39315124 49.40641373 -26.85108665 52.82990748 -30.3125 56.25 C-28.97863323 59.22351508 -27.52987417 61.26562575 -25.19555664 63.53051758 C-24.24931175 64.45716972 -24.24931175 64.45716972 -23.28395081 65.40254211 C-22.6037236 66.05989853 -21.9234964 66.71725494 -21.22265625 67.39453125 C-19.78422873 68.80766133 -18.34608657 70.22108193 -16.90820312 71.63476562 C-14.64293855 73.8504599 -12.3746396 76.0628498 -10.10083008 78.26977539 C-7.90334836 80.40662046 -5.71866036 82.55591808 -3.53515625 84.70703125 C-2.85695328 85.35831497 -2.17875031 86.00959869 -1.47999573 86.68061829 C2.89951295 91.01344653 6.2860016 95.09631653 6.90234375 101.47265625 C6.18223547 106.24971262 4.97495585 109.54107546 1.6875 113.25 C-2.81468432 116.55426388 -6.73121025 117.75901834 -12.2578125 117 C-19.77137091 114.25740834 -25.1274318 107.74488617 -30.63671875 102.2265625 C-31.62965036 101.23752401 -32.62280297 100.24870734 -33.61616516 99.26010132 C-35.68966114 97.19403823 -37.75927729 95.12418066 -39.82641602 93.05175781 C-42.4674414 90.40492999 -45.11967925 87.76966401 -47.7751646 85.1373539 C-49.82652737 83.10076322 -51.87087851 81.0572445 -53.9133091 79.01169968 C-54.88812477 78.03739508 -55.86528603 77.06543113 -56.84488487 76.09593582 C-58.21587978 74.73735988 -59.57629399 73.36813202 -60.9362793 71.99853516 C-61.7109404 71.22450348 -62.4856015 70.4504718 -63.28373718 69.65298462 C-67.02758931 65.21854852 -68.62339634 61.28785489 -68.80859375 55.47265625 C-66.94548057 47.1253224 -59.9117513 41.39266307 -54.10546875 35.609375 C-53.0962599 34.59559726 -52.08742121 33.5814509 -51.07893372 32.56695557 C-48.97159223 30.45071674 -46.85872085 28.34019727 -44.74194336 26.23339844 C-42.04014685 23.543105 -39.35456015 20.83725537 -36.67313671 18.12667465 C-34.5962998 16.03143053 -32.51016384 13.94564095 -30.42125893 11.86243439 C-29.42749702 10.86882504 -28.43680106 9.87213877 -27.4493618 8.87224579 C-19.06841396 0.40052554 -11.78017487 -6.22348861 0 0 Z " fill="#F6F6F6" transform="translate(152.3125,136.75)"/>
<path d="M0 0 C0.66 0.33 1.32 0.66 2 1 C-0.31 3.31 -2.62 5.62 -5 8 C-5.33 7.34 -5.66 6.68 -6 6 C-4 4 -2 2 0 0 Z " fill="#C5C5C5" transform="translate(226,135)"/>
</svg>
